<?xml version="1.0" standalone="no"?><!DOCTYPE svg PUBLIC "-//W3C//DTD SVG 1.1//EN" "http://www.w3.org/Graphics/SVG/1.1/DTD/svg11.dtd"><svg class="icon" width="200px" height="194.86px" viewBox="0 0 1051 1024" version="1.1" xmlns="http://www.w3.org/2000/svg"><path d="M332.108108 276.756757h636.540541v110.702702H332.108108z" fill="#F24866" /><path d="M329.728 885.621622H221.405405l83.027027-885.621622h747.243244l-85.351784 885.621622H857.945946l72.648649-774.918919H404.452324l-74.724324 774.918919z" fill="#273149" /><path d="M166.054054 691.891892a166.054054 166.054054 0 1 1 0 332.108108 166.054054 166.054054 0 0 1 0-332.108108z m0 110.702703a55.351351 55.351351 0 1 0 0 110.702702 55.351351 55.351351 0 0 0 0-110.702702zM802.594595 691.891892a166.054054 166.054054 0 1 1 0 332.108108 166.054054 166.054054 0 0 1 0-332.108108z m0 110.702703a55.351351 55.351351 0 1 0 0 110.702702 55.351351 55.351351 0 0 0 0-110.702702z" fill="#273149" /></svg>