<?xml version="1.0" standalone="no"?><!DOCTYPE svg PUBLIC "-//W3C//DTD SVG 1.1//EN" "http://www.w3.org/Graphics/SVG/1.1/DTD/svg11.dtd"><svg t="1610159094306" class="icon" viewBox="0 0 1024 1024" version="1.1" xmlns="http://www.w3.org/2000/svg" p-id="3743" xmlns:xlink="http://www.w3.org/1999/xlink" width="200" height="200"><defs><style type="text/css"></style></defs><path d="M512 9.589402c-277.487895 0-502.43618 224.948285-502.43618 502.43618s224.948285 502.43618 502.43618 502.43618 502.43618-224.948285 502.43618-502.43618S789.487895 9.589402 512 9.589402zM512 983.059566c-259.729439 0-471.033983-211.304544-471.033983-471.033983S252.270561 40.9916 512 40.9916s471.033983 211.304544 471.033983 471.033983S771.728416 983.059566 512 983.059566zM512 339.312986c-95.386464 0-172.712597 77.326133-172.712597 172.712597S416.613536 684.73818 512 684.73818s172.712597-77.326133 172.712597-172.712597S607.386464 339.312986 512 339.312986zM512 653.335982c-77.91965 0-141.3104-63.390749-141.3104-141.3104s63.390749-141.3104 141.3104-141.3104 141.3104 63.390749 141.3104 141.3104S589.918627 653.335982 512 653.335982zM512 480.623385c-17.342993 0-31.402197 14.059204-31.402197 31.402197 0 17.342993 14.059204 31.402197 31.402197 31.402197 17.342993 0 31.402197-14.059204 31.402197-31.402197C543.402197 494.682589 529.342993 480.623385 512 480.623385zM512 527.727193c-8.65717 0-15.70161-7.043417-15.70161-15.70161 0-8.65717 7.043417-15.70161 15.70161-15.70161 8.65717 0 15.70161 7.043417 15.70161 15.70161C527.700587 520.682753 520.65717 527.727193 512 527.727193zM924.230716 383.211798C882.003985 247.973698 776.067234 142.021597 640.829134 99.80203c-4.201695-1.334391-8.540514 1.019213-9.844206 5.152347-1.288343 4.140297 1.01205 8.540514 5.152347 9.828856 130.331347 40.693818 232.419444 142.7901 273.097912 273.106098 1.058099 3.357468 4.155646 5.51255 7.497765 5.51255 0.766456 0 1.563612-0.11461 2.346441-0.360204C923.219689 391.752312 925.519058 387.352095 924.230716 383.211798zM612.723006 189.753715c-4.201695-1.334391-8.540514 1.019213-9.844206 5.152347-1.288343 4.140297 1.027399 8.540514 5.152347 9.828856 100.815103 31.470759 179.780573 110.444415 211.259518 211.259518 1.058099 3.357468 4.155646 5.51255 7.497765 5.51255 0.766456 0 1.563612-0.11461 2.346441-0.360204 4.140297-1.288343 6.439666-5.688559 5.152347-9.828856C801.274336 305.58072 718.444862 222.751247 612.723006 189.753715zM626.767883 144.774291c-4.186346-1.303692-8.540514 1.027399-9.844206 5.152347-1.288343 4.140297 1.027399 8.540514 5.152347 9.828856 115.581412 36.078707 206.123544 126.613676 242.186901 242.186901 1.058099 3.357468 4.155646 5.51255 7.497765 5.51255 0.766456 0 1.563612-0.11461 2.345418-0.360204 4.124947-1.288343 6.439666-5.688559 5.152347-9.828856C841.646835 276.769534 747.256048 182.378747 626.767883 144.774291zM387.862725 909.260769c-130.315998-40.678468-232.419444-142.781914-273.098935-273.098935-1.303692-4.124947-5.611811-6.470365-9.844206-5.152347-4.140297 1.303692-6.439666 5.703909-5.152347 9.844206 42.227754 135.222751 148.179854 241.174851 283.402605 283.402605 0.781806 0.245593 1.578961 0.353041 2.346441 0.353041 3.342118 0 6.439666-2.146896 7.497765-5.504364C394.302391 914.965701 392.003022 910.564461 387.862725 909.260769zM415.984203 819.317271c-100.830453-31.463596-179.811272-110.444415-211.274868-211.274868-1.288343-4.124947-5.65786-6.455015-9.844206-5.152347-4.140297 1.303692-6.439666 5.703909-5.152347 9.844206 33.011858 105.737206 115.841332 188.56668 221.579561 221.579561 0.781806 0.245593 1.578961 0.353041 2.346441 0.353041 3.342118 0 6.439666-2.146896 7.497765-5.504364C422.423869 825.02118 420.123476 820.61994 415.984203 819.317271zM401.922952 864.289532c-115.581412-36.063357-206.123544-126.605489-242.186901-242.186901-1.288343-4.124947-5.627161-6.455015-9.844206-5.152347-4.123924 1.303692-6.439666 5.703909-5.151323 9.844206 37.611619 120.488165 132.00343 214.878952 252.490571 252.490571 0.781806 0.245593 1.578961 0.353041 2.346441 0.353041 3.342118 0 6.439666-2.146896 7.497765-5.504364C408.363641 869.99344 406.0479 865.5922 401.922952 864.289532z" p-id="3744"></path></svg>